<svg width="199" height="74" viewBox="0 0 199 74" fill="none" xmlns="http://www.w3.org/2000/svg">
<path d="M0.275391 74V0.09375H20.5996C25.9186 0.09375 29.9219 1.57747 32.6094 4.54492C35.2969 7.48438 36.6406 11.7956 36.6406 17.4785V52.0801C36.6406 59.0788 35.4089 64.4818 32.9453 68.2891C30.5098 72.0964 26.2266 74 20.0957 74H0.275391ZM15.1406 60.9404H17.7021C20.4176 60.9404 21.7754 59.6247 21.7754 56.9932V18.8643C21.7754 16.4007 21.4395 14.819 20.7676 14.1191C20.1237 13.3913 18.7939 13.0273 16.7783 13.0273H15.1406V60.9404ZM42.6875 74V0.09375H72.25V14.3711H57.7207V28.7744H71.6621V42.6738H57.7207V59.5967H73.2158V74H42.6875ZM78.1289 74V0.09375H93.3301L100.133 35.4932V0.09375H114.41V74H99.9648L92.5742 37.0469V74H78.1289ZM120.289 74V0.09375H134.566V74H120.289ZM140.445 74V0.09375H162.953L169.168 45.1514L175.341 0.09375H198.059V74H184.537V20.7539L176.055 74H162.785L153.799 20.7539V74H140.445Z" fill="#151C22"/>
</svg>
