<svg width="73" height="19" viewBox="0 0 73 19" fill="none" xmlns="http://www.w3.org/2000/svg">
<path d="M15.392 2.16V18H10.016L5.696 10.152L4.688 8.016H4.64L4.736 11.136V18H0.464V2.16H5.816L10.136 10.008L11.168 12.144H11.192L11.096 9.024V2.16H15.392ZM22.8834 6V18H18.0354V6H22.8834ZM25.3314 4.752H21.9474L20.4594 2.832L18.9714 4.752H15.5874L18.1794 0.527999H22.7394L25.3314 4.752ZM25.2307 18V6H29.5987L29.7187 8.472C30.0707 7.592 30.5987 6.92 31.3027 6.456C32.0067 5.992 32.8467 5.76 33.8227 5.76C34.7187 5.76 35.4787 5.968 36.1027 6.384C36.7427 6.784 37.1987 7.376 37.4707 8.16C37.7267 7.632 38.0467 7.192 38.4307 6.84C38.8307 6.488 39.2867 6.224 39.7987 6.048C40.3267 5.856 40.8867 5.76 41.4787 5.76C42.2787 5.76 42.9667 5.92 43.5427 6.24C44.1347 6.544 44.5907 7.008 44.9107 7.632C45.2307 8.24 45.3907 8.992 45.3907 9.888V18H40.5427V11.088C40.5427 10.448 40.4387 10.008 40.2307 9.768C40.0227 9.512 39.7267 9.384 39.3427 9.384C39.0227 9.384 38.7347 9.464 38.4787 9.624C38.2387 9.784 38.0547 10.04 37.9267 10.392C37.7987 10.728 37.7347 11.152 37.7347 11.664V18H32.8867V11.088C32.8867 10.448 32.7827 10.008 32.5747 9.768C32.3667 9.512 32.0707 9.384 31.6867 9.384C31.3827 9.384 31.1027 9.464 30.8467 9.624C30.6067 9.784 30.4147 10.04 30.2707 10.392C30.1427 10.728 30.0787 11.16 30.0787 11.688V18H25.2307ZM53.8513 18.24C52.4753 18.24 51.2833 18 50.2753 17.52C49.2833 17.024 48.5153 16.312 47.9713 15.384C47.4433 14.456 47.1793 13.328 47.1793 12C47.1793 10.672 47.4513 9.544 47.9953 8.616C48.5393 7.688 49.2993 6.984 50.2753 6.504C51.2513 6.008 52.3793 5.76 53.6593 5.76C54.9713 5.76 56.0833 6.008 56.9953 6.504C57.9233 6.984 58.6273 7.656 59.1073 8.52C59.6033 9.384 59.8513 10.392 59.8513 11.544C59.8513 11.816 59.8353 12.088 59.8033 12.36C59.7873 12.632 59.7633 12.864 59.7313 13.056H50.2993V10.944H57.6193L55.3153 11.832C55.3153 10.92 55.1873 10.232 54.9313 9.768C54.6913 9.288 54.2673 9.048 53.6593 9.048C53.2433 9.048 52.8913 9.144 52.6033 9.336C52.3313 9.528 52.1233 9.848 51.9793 10.296C51.8513 10.744 51.7873 11.336 51.7873 12.072C51.7873 12.808 51.8673 13.392 52.0273 13.824C52.2033 14.24 52.4433 14.528 52.7473 14.688C53.0513 14.848 53.4353 14.928 53.8993 14.928C54.4113 14.928 54.8113 14.824 55.0993 14.616C55.3873 14.408 55.5953 14.12 55.7233 13.752L59.6113 14.904C59.4193 15.64 59.0273 16.256 58.4353 16.752C57.8593 17.248 57.1713 17.624 56.3713 17.88C55.5713 18.12 54.7313 18.24 53.8513 18.24ZM66.9331 18.24C65.7491 18.24 64.6291 18.064 63.5731 17.712C62.5171 17.36 61.6131 16.84 60.8611 16.152L62.8051 13.584C63.2371 14.016 63.7891 14.392 64.4611 14.712C65.1491 15.032 65.8691 15.192 66.6211 15.192C67.0051 15.192 67.3251 15.144 67.5811 15.048C67.8531 14.952 67.9891 14.784 67.9891 14.544C67.9891 14.384 67.9171 14.256 67.7731 14.16C67.6451 14.048 67.3651 13.952 66.9331 13.872L65.6851 13.632C64.0531 13.312 62.8931 12.848 62.2051 12.24C61.5331 11.616 61.1971 10.8 61.1971 9.792C61.1971 9.136 61.3971 8.504 61.7971 7.896C62.2131 7.272 62.8611 6.76 63.7411 6.36C64.6371 5.96 65.7891 5.76 67.1971 5.76C68.4291 5.76 69.5251 5.928 70.4851 6.264C71.4611 6.584 72.2371 7.048 72.8131 7.656L70.9171 10.152C70.4851 9.736 69.9411 9.408 69.2851 9.168C68.6291 8.928 68.0051 8.808 67.4131 8.808C67.1091 8.808 66.8531 8.832 66.6451 8.88C66.4371 8.928 66.2771 9 66.1651 9.096C66.0691 9.176 66.0211 9.288 66.0211 9.432C66.0211 9.592 66.1091 9.736 66.2851 9.864C66.4771 9.976 66.8211 10.08 67.3171 10.176L69.2371 10.512C70.5011 10.736 71.4211 11.152 71.9971 11.76C72.5731 12.368 72.8611 13.112 72.8611 13.992C72.8611 14.776 72.6531 15.488 72.2371 16.128C71.8211 16.768 71.1731 17.28 70.2931 17.664C69.4291 18.048 68.3091 18.24 66.9331 18.24Z" fill="#151C22"/>
</svg>
